<svg width="22" height="22" viewBox="0 0 22 22" fill="none" xmlns="http://www.w3.org/2000/svg">
<mask id="mask0_8132_1478" style="mask-type:luminance" maskUnits="userSpaceOnUse" x="0" y="0" width="22" height="22">
<path fill-rule="evenodd" clip-rule="evenodd" d="M0 0H21.493V21.4938H0V0Z" fill="white"/>
</mask>
<g mask="url(#mask0_8132_1478)">
<path fill-rule="evenodd" clip-rule="evenodd" d="M5.10844 18.675C5.68844 18.675 6.23544 18.895 6.81444 19.128C10.3614 20.768 14.5564 20.022 17.2894 17.29C20.8954 13.682 20.8954 7.813 17.2894 4.207C15.5434 2.461 13.2214 1.5 10.7494 1.5C8.27644 1.5 5.95344 2.462 4.20844 4.208C1.47444 6.94 0.730437 11.135 2.35544 14.648C2.58944 15.227 2.81544 15.791 2.81544 16.377C2.81544 16.962 2.61444 17.551 2.43744 18.071C2.29144 18.499 2.07044 19.145 2.21244 19.287C2.35144 19.431 3.00144 19.204 3.43044 19.057C3.94544 18.881 4.52944 18.679 5.10844 18.675ZM10.7244 21.494C9.19644 21.494 7.65844 21.171 6.21944 20.505C5.79544 20.335 5.39844 20.175 5.11344 20.175C4.78544 20.177 4.34444 20.329 3.91844 20.476C3.04444 20.776 1.95644 21.15 1.15144 20.348C0.349437 19.545 0.719437 18.46 1.01744 17.587C1.16444 17.157 1.31544 16.713 1.31544 16.377C1.31544 16.101 1.18244 15.749 0.978437 15.242C-0.894563 11.197 -0.0285628 6.322 3.14844 3.147C5.17644 1.118 7.87544 0 10.7484 0C13.6214 0 16.3214 1.117 18.3494 3.146C22.5414 7.338 22.5414 14.158 18.3494 18.35C16.2944 20.406 13.5274 21.494 10.7244 21.494Z" fill="white"/>
</g>
<path fill-rule="evenodd" clip-rule="evenodd" d="M14.6964 12.1621C14.1444 12.1621 13.6924 11.7151 13.6924 11.1621C13.6924 10.6091 14.1354 10.1621 14.6874 10.1621H14.6964C15.2484 10.1621 15.6964 10.6091 15.6964 11.1621C15.6964 11.7151 15.2484 12.1621 14.6964 12.1621Z" fill="white"/>
<path fill-rule="evenodd" clip-rule="evenodd" d="M10.6876 12.1621C10.1356 12.1621 9.68359 11.7151 9.68359 11.1621C9.68359 10.6091 10.1256 10.1621 10.6786 10.1621H10.6876C11.2396 10.1621 11.6876 10.6091 11.6876 11.1621C11.6876 11.7151 11.2396 12.1621 10.6876 12.1621Z" fill="white"/>
<path fill-rule="evenodd" clip-rule="evenodd" d="M6.67832 12.1621C6.12632 12.1621 5.67432 11.7151 5.67432 11.1621C5.67432 10.6091 6.11732 10.1621 6.66932 10.1621H6.67832C7.23032 10.1621 7.67832 10.6091 7.67832 11.1621C7.67832 11.7151 7.23032 12.1621 6.67832 12.1621Z" fill="white"/>
</svg>
