<svg width="27" height="22" viewBox="0 0 27 22" fill="none" xmlns="http://www.w3.org/2000/svg">
<g clip-path="url(#clip0_8081_1397)">
<path d="M22.9627 2.15604C21.2781 1.32492 19.4769 0.720891 17.5938 0.376953C17.3625 0.817869 17.0923 1.41091 16.906 1.88267C14.9042 1.56522 12.9208 1.56522 10.9558 1.88267C10.7695 1.41091 10.4932 0.817869 10.2599 0.376953C8.3747 0.720891 6.5714 1.32713 4.88683 2.16044C1.48902 7.57477 0.567935 12.8546 1.02848 18.0595C3.28208 19.8341 5.46609 20.9122 7.61325 21.6176C8.14339 20.8482 8.61621 20.0304 9.02353 19.1684C8.24777 18.8576 7.50476 18.474 6.80271 18.0287C6.98896 17.8832 7.17115 17.731 7.34716 17.5745C11.6292 19.6865 16.2817 19.6865 20.5126 17.5745C20.6907 17.731 20.8728 17.8832 21.0571 18.0287C20.3529 18.4762 19.6079 18.8597 18.8321 19.1706C19.2395 20.0304 19.7102 20.8505 20.2424 21.6198C22.3916 20.9144 24.5777 19.8364 26.8313 18.0595C27.3717 12.0257 25.9082 6.79436 22.9627 2.15604ZM9.6069 14.8586C8.32147 14.8586 7.26732 13.5931 7.26732 12.0522C7.26732 10.5112 8.29896 9.2436 9.6069 9.2436C10.9149 9.2436 11.969 10.509 11.9465 12.0522C11.9485 13.5931 10.9149 14.8586 9.6069 14.8586ZM18.2529 14.8586C16.9675 14.8586 15.9133 13.5931 15.9133 12.0522C15.9133 10.5112 16.9449 9.2436 18.2529 9.2436C19.5608 9.2436 20.615 10.509 20.5925 12.0522C20.5925 13.5931 19.5608 14.8586 18.2529 14.8586Z" fill="white"/>
</g>
<defs>
<clipPath id="clip0_8081_1397">
<rect width="26.0417" height="21.8182" fill="white" transform="translate(0.917969 0.0898438)"/>
</clipPath>
</defs>
</svg>
