<svg width="21" height="20" viewBox="0 0 21 20" fill="none" xmlns="http://www.w3.org/2000/svg">
    <mask id="mask0_8132_1469" style="mask-type:luminance" maskUnits="userSpaceOnUse" x="0" y="0" width="21"
        height="20">
        <path fill-rule="evenodd" clip-rule="evenodd" d="M0 0H20.4725V19.501H0V0Z" fill="white" />
    </mask>
    <g mask="url(#mask0_8132_1469)">
        <path fill-rule="evenodd" clip-rule="evenodd"
            d="M1.82347 9.12312C3.22547 13.4851 8.76447 17.0121 10.2365 17.8851C11.7135 17.0031 17.2925 13.4371 18.6495 9.12712C19.5405 6.34112 18.7135 2.81212 15.4275 1.75312C13.8355 1.24212 11.9785 1.55312 10.6965 2.54512C10.4285 2.75112 10.0565 2.75512 9.78647 2.55112C8.42847 1.53012 6.65447 1.23112 5.03747 1.75312C1.75647 2.81112 0.932468 6.34012 1.82347 9.12312ZM10.2375 19.5011C10.1135 19.5011 9.99047 19.4711 9.87847 19.4101C9.56547 19.2391 2.19247 15.1751 0.395468 9.58112C0.394468 9.58112 0.394468 9.58012 0.394468 9.58012C-0.733532 6.05812 0.522469 1.63212 4.57747 0.325118C6.48147 -0.290882 8.55647 -0.019882 10.2345 1.03912C11.8605 0.0111181 14.0205 -0.272882 15.8865 0.325118C19.9455 1.63412 21.2055 6.05912 20.0785 9.58012C18.3395 15.1101 10.9125 19.2351 10.5975 19.4081C10.4855 19.4701 10.3615 19.5011 10.2375 19.5011Z"
            fill="white" />
    </g>
</svg>