<svg width="96" height="96" viewBox="0 0 96 96" fill="none" xmlns="http://www.w3.org/2000/svg">
<path d="M53.6997 76.7598H43.299C42.4081 76.7598 41.6792 77.4887 41.6792 78.3797C41.6792 79.2708 42.4081 79.9997 43.299 79.9997H53.6997C54.5906 79.9997 55.3195 79.2708 55.3195 78.3797C55.3195 77.4887 54.5906 76.7598 53.6997 76.7598Z" fill="#312F4B"/>
<path d="M88.9997 54.0105C88.9997 63.375 81.3693 71.0064 72.006 71.0064H58.5603V64.8818H59.4349C61.3307 64.8818 63.0636 63.7636 63.8575 62.0467C64.6515 60.329 64.3599 58.288 63.1612 56.8944L52.2425 43.9324C51.319 42.8305 49.9583 42.183 48.5005 42.183C47.0583 42.183 45.6976 42.8312 44.7904 43.9169L33.9198 56.83C32.6397 58.2398 32.3481 60.2972 33.1746 62.1118C33.9849 63.7969 35.7178 64.8826 37.5648 64.8826H38.4394V71.0072H24.9937C15.6297 71.0072 8 63.3758 8 54.0105C8 44.6297 15.6304 37.0146 24.9937 37.0146C26.5002 37.0146 27.9743 37.2092 29.4002 37.5978C29.3032 36.82 29.2544 36.0259 29.2544 35.2482C29.2544 24.6358 37.8889 16 48.5 16C59.1111 16 67.7456 24.6356 67.7456 35.2482C67.7456 36.0259 67.6968 36.82 67.5998 37.5978C69.042 37.2092 70.516 37.0146 72.0063 37.0146C81.3703 37.0146 89 44.6297 89 54.0105L88.9997 54.0105Z" fill="#312F4B"/>
<path d="M43.3006 73.3725H53.7013C54.5922 73.3725 55.3211 72.6598 55.3211 71.7526V61.6428H59.4359C60.0678 61.6428 60.6509 61.2698 60.9099 60.7029C61.1689 60.136 61.0883 59.4552 60.6828 58.9853L49.7478 46.007C49.44 45.6341 48.9864 45.4238 48.5003 45.4238C48.0304 45.4238 47.5768 45.6347 47.269 46.007L36.334 58.9853C35.9129 59.4552 35.8316 60.1353 36.0912 60.7029C36.3665 61.2698 36.9333 61.6428 37.5652 61.6428H41.6801V71.7526C41.6808 72.6599 42.4096 73.3725 43.3006 73.3725Z" fill="#312F4B"/>
</svg>
