<svg width="12" height="16" viewBox="0 0 12 16" fill="none" xmlns="http://www.w3.org/2000/svg">
    <path fill-rule="evenodd" clip-rule="evenodd"
        d="M4.982 14.9757C5.0479 15.4615 5.46433 15.8359 5.96822 15.8359C6.51792 15.8359 6.96353 15.3903 6.96353 14.8406L6.96353 3.40499L10.2369 6.69287L10.3483 6.78948C10.7374 7.07942 11.2904 7.04847 11.6445 6.69587C12.034 6.308 12.0353 5.67781 11.6475 5.28829L6.67357 0.293149L6.67109 0.290998C6.63802 0.258017 6.60265 0.227347 6.56523 0.199253L6.5618 0.196283C6.17155 -0.0943155 5.61666 -0.062027 5.263 0.293149L0.289092 5.28829L0.192959 5.40012C-0.0953207 5.79039 -0.0620193 6.34326 0.29209 6.69587L0.403927 6.792C0.794188 7.08028 1.34707 7.04698 1.69967 6.69287L4.97291 3.40695L4.97291 14.8406L4.982 14.9757Z"
        fill="white" />
</svg>