<svg width="12" height="16" viewBox="0 0 12 16" fill="none" xmlns="http://www.w3.org/2000/svg">
    <path fill-rule="evenodd" clip-rule="evenodd"
        d="M4.982 1.02432C5.0479 0.538504 5.46433 0.164063 5.96822 0.164063C6.51792 0.164063 6.96353 0.609679 6.96353 1.15937L6.96353 12.595L10.2369 9.30713L10.3483 9.21052C10.7374 8.92058 11.2904 8.95153 11.6445 9.30413C12.034 9.692 12.0353 10.3222 11.6475 10.7117L6.67357 15.7069L6.67109 15.709C6.63802 15.742 6.60265 15.7727 6.56523 15.8007L6.5618 15.8037C6.17155 16.0943 5.61666 16.062 5.263 15.7069L0.289092 10.7117L0.192959 10.5999C-0.0953207 10.2096 -0.0620193 9.65674 0.29209 9.30413L0.403927 9.208C0.794188 8.91972 1.34707 8.95302 1.69967 9.30713L4.97291 12.593L4.97291 1.15937L4.982 1.02432Z"
        fill="white" />
</svg>