<svg width="20" height="20" viewBox="0 0 13 10" fill="none" xmlns="http://www.w3.org/2000/svg">
    <path
        d="M12.9997 4.60553C12.9998 4.47478 12.9336 4.35252 12.8231 4.2798L7.77018 0.435351C7.6412 0.328237 7.46127 0.302933 7.30689 0.370203C7.16052 0.448227 7.06786 0.597462 7.06416 0.761237V2.65082C4.46054 2.71597 3.20274 3.54137 3.00415 3.67165C-0.32779 5.80016 0.400364 8.86269 0.400364 8.88441L0.510722 9.34061C0.561051 9.50332 0.695574 9.6274 0.863802 9.66634H0.951996C1.09006 9.66316 1.2195 9.59953 1.30508 9.49256L1.59197 9.10168H1.59182C2.22178 8.26691 3.05002 7.59677 4.00399 7.15C4.95796 6.7032 6.00858 6.49337 7.06413 6.53867V8.49353C7.05736 8.66019 7.15309 8.81442 7.30686 8.88441C7.45877 8.94849 7.63331 8.93213 7.77015 8.84108L12.8231 4.95323C12.9316 4.86914 12.9963 4.74173 12.9996 4.60568L12.9997 4.60553ZM7.94672 7.60291V6.14768C7.94795 5.92376 7.77588 5.73574 7.54962 5.71332C6.36665 5.58318 5.16933 5.74302 4.06437 6.1789C2.95941 6.61477 1.98113 7.31291 1.21677 8.21106C1.19476 7.38567 1.43748 5.71336 3.51148 4.38841H3.53349C3.53349 4.38841 4.76911 3.54134 7.41694 3.54134H7.50544C7.62242 3.54134 7.73478 3.49558 7.81743 3.41408C7.90024 3.33257 7.94672 3.22212 7.94672 3.10697V1.65163L11.8302 4.60553L7.94672 7.60291Z"
        fill="white" />
</svg>